<svg width="166" height="34" viewBox="0 0 166 34" fill="none" xmlns="http://www.w3.org/2000/svg">
<g clip-path="url(#clip0_7306_2574)">
<path fill-rule="evenodd" clip-rule="evenodd" d="M121.558 11.425C126.852 11.425 130.657 15.2864 130.657 21.1023C130.657 21.4443 130.6 21.7806 130.377 22.0353C130.267 22.1616 130.132 22.2629 129.979 22.3323C129.827 22.4018 129.661 22.4377 129.494 22.4378L121.43 22.4363C121.079 22.4363 120.956 22.2703 120.956 21.9635V21.6342C120.956 21.3275 121.079 21.1628 121.43 21.1628H124.362V15.686C124.362 13.8707 123.149 12.5902 121.202 12.5902C119.256 12.5902 117.945 13.8552 117.945 15.6902V27.2011C118.001 29.281 119.096 30.7163 121.202 30.9133C121.371 30.9204 121.537 30.9387 121.715 30.9387C126.354 30.9387 128.5 27.8259 129.225 26.8859C129.366 26.7016 129.612 26.6608 129.798 26.7902L129.995 26.9352C130.099 27.0083 130.192 27.1322 130.213 27.2673C130.218 27.333 130.21 27.3991 130.189 27.4617C130.168 27.5243 130.135 27.5821 130.092 27.6317C129.267 28.7111 126.731 32.1179 121.715 32.1179C116.082 32.1179 111.67 28.5014 111.67 21.8298C111.67 15.0894 116.015 11.425 121.558 11.425ZM106.428 11.425C106.69 11.425 106.901 11.6389 106.901 11.8992V30.7121C106.901 30.971 106.69 31.1835 106.428 31.1835H101.286C101.161 31.1835 101.041 31.1339 100.952 31.0456C100.863 30.9573 100.813 30.8374 100.812 30.7121V11.8992C100.812 11.6389 101.024 11.425 101.286 11.425H106.428ZM33.953 1.23968C34.326 1.04267 34.5159 1.23405 34.5159 1.54645V30.9654C34.5152 31.0906 34.4648 31.2103 34.3759 31.2984C34.2871 31.3865 34.1669 31.4358 34.0417 31.4354H28.9012C28.8392 31.4358 28.7777 31.4239 28.7203 31.4005C28.6628 31.377 28.6106 31.3425 28.5665 31.2988C28.5225 31.2552 28.4875 31.2032 28.4635 31.146C28.4396 31.0888 28.4271 31.0274 28.427 30.9654V4.65073C28.427 4.32989 28.5297 4.12162 28.9012 3.92602L33.953 1.23827V1.23968ZM70.688 11.425C70.9484 11.425 71.1609 11.6389 71.1609 11.8992C71.1609 11.8992 71.3959 15.6649 71.3959 21.305V30.7121C71.3951 30.8374 71.3448 30.9573 71.256 31.0456C71.1671 31.1339 71.0469 31.1835 70.9216 31.1835H65.6953C65.5701 31.1835 65.4501 31.1339 65.3615 31.0455C65.2728 30.9572 65.2228 30.8373 65.2225 30.7121V11.8992C65.2225 11.6389 65.4336 11.425 65.6953 11.425H70.688ZM141.14 11.425C141.401 11.425 141.614 11.6389 141.614 11.8992C141.614 11.8992 141.849 15.6649 141.849 21.305V30.7121C141.848 30.8374 141.798 30.9573 141.709 31.0456C141.62 31.1339 141.5 31.1835 141.375 31.1835H136.273C136.148 31.1839 136.027 31.1345 135.938 31.0461C135.849 30.9577 135.799 30.8376 135.798 30.7121V11.8992C135.798 11.6389 136.012 11.425 136.273 11.425H141.14ZM103.521 2.97053C105.287 2.97053 106.836 4.50157 106.836 6.24368C106.836 7.98861 105.287 9.51824 103.521 9.51824C101.755 9.51824 100.21 7.98861 100.21 6.24368C100.21 4.50157 101.755 2.97053 103.521 2.97053ZM147.306 11.425C149.168 11.425 150.472 12.6127 150.472 14.3112C150.472 15.9069 149.242 17.1565 147.672 17.1565C145.918 17.1565 144.651 15.7409 144.278 13.3683C144.172 12.6957 144.295 12.4185 144.826 12.1131C145.579 11.6726 146.434 11.4355 147.306 11.425ZM72.9072 14.1887C72.6117 14.2774 72.4921 14.1198 72.4752 13.8834C72.4653 13.7004 72.4738 13.9003 72.4653 13.7483C72.4372 13.3641 72.547 13.2712 72.8129 13.07C73.798 12.3284 75.5021 11.425 77.043 11.425C81.2632 11.425 82.9715 13.9777 82.9715 17.9009V31.0667C82.9715 31.3003 82.7604 31.548 82.4973 31.548H77.392C77.1302 31.548 76.9191 31.3003 76.9191 31.0667L76.9177 16.9215C76.9177 14.1705 75.6569 13.3501 72.9072 14.1887ZM24.8879 30.9063C24.9498 31.047 24.9343 31.2074 24.8484 31.3383C24.8036 31.4015 24.744 31.4528 24.6749 31.4879C24.6057 31.5229 24.5291 31.5406 24.4516 31.5395H19.0677C18.9757 31.5416 18.8852 31.5163 18.8076 31.467C18.7299 31.4177 18.6687 31.3464 18.6314 31.2623L9.76466 10.0868C9.74099 10.0324 9.72878 9.97368 9.72878 9.91437C9.72878 9.85505 9.74099 9.79638 9.76466 9.74199L11.9585 3.85707C11.9962 3.77239 12.0578 3.7006 12.1358 3.65058C12.2139 3.60056 12.3049 3.5745 12.3975 3.57563H12.9421C13.1321 3.57563 13.3024 3.68117 13.3784 3.84863L24.8893 30.9049L24.8879 30.9063ZM13.9398 24.0997L14.0946 24.4585C14.203 24.7076 14.0805 24.9187 13.8188 24.9187H4.57771L2.02787 30.9021C1.99014 30.9864 1.92866 31.058 1.85094 31.1079C1.77322 31.1579 1.68263 31.1842 1.59023 31.1835H1.15259C1.0756 31.1839 0.999644 31.1659 0.931084 31.1309C0.862523 31.0958 0.803363 31.0449 0.75857 30.9823C0.715963 30.9206 0.689623 30.8492 0.681997 30.7747C0.67437 30.7002 0.685704 30.6249 0.714947 30.5559L8.54462 12.1933L8.55587 12.1708C8.5786 12.1283 8.61247 12.0927 8.65387 12.0679C8.69526 12.0431 8.74262 12.03 8.79088 12.0301C8.89079 12.0301 8.97381 12.085 9.01884 12.1624L9.04136 12.2116L9.30732 12.8702C9.32983 12.9237 9.37205 13.025 9.4016 13.1094L9.4213 13.1727C9.42552 13.1882 9.43115 13.2037 9.43115 13.2206C9.43115 13.2459 9.42552 13.267 9.41849 13.2881L9.40301 13.3332L9.36501 13.4274C9.3031 13.5682 5.10119 23.6437 5.10119 23.6437H13.2728C13.7161 23.6437 13.8301 23.8492 13.9398 24.0997ZM165.322 11.425V13.6118L159.201 16.1405L165.322 18.6805V20.8659H155.706V19.0436H161.592L155.706 16.6077V15.6733L161.586 13.2501H155.706V11.425H165.322ZM155.706 26.8887V22.8993H165.322V26.8887C165.322 29.7425 163.296 31.8168 160.505 31.8168C157.677 31.8168 155.706 29.7904 155.706 26.8887ZM160.507 29.9508C162.398 29.9508 163.62 28.7491 163.62 26.8887V24.7245H157.407V26.8887C157.407 29.0052 158.965 29.9508 160.507 29.9508ZM83.4514 14.1761L83.3641 13.972C83.2135 13.5991 83.4626 13.502 83.8482 13.2065C84.8839 12.4213 87.0679 11.425 88.6088 11.425C92.7206 11.425 94.4205 13.9017 94.4205 17.9333V31.1005C94.4205 31.3341 94.208 31.5818 93.9477 31.5818H88.8438C88.5806 31.5818 88.3709 31.3341 88.3709 31.1005L88.3695 17.1242C88.3695 14.0565 86.9426 13.101 83.9608 14.3675C83.699 14.48 83.5372 14.3858 83.4514 14.1761ZM53.8678 31.1835C53.7421 31.1831 53.6217 31.1331 53.5328 31.0442C53.444 30.9554 53.3939 30.8349 53.3935 30.7093C53.3935 30.7093 53.1585 26.9422 53.1585 21.3036V11.8992C53.1585 11.6375 53.3724 11.425 53.6328 11.425H58.8591C59.1208 11.425 59.3319 11.6375 59.3319 11.8992V30.7093C59.3319 30.9696 59.1208 31.1835 58.8591 31.1835H53.8678ZM51.2377 28.7842C51.5332 28.6956 51.6542 28.8504 51.6697 29.091C51.681 29.2725 51.6725 29.0699 51.681 29.2247C51.7091 29.6089 51.5994 29.7003 51.332 29.9016C50.3469 30.6446 47.9589 31.548 46.418 31.548C42.1964 31.548 40.4909 28.9953 40.4909 25.0749V11.9049C40.4909 11.6713 40.702 11.4236 40.9651 11.4236H46.0705C46.3294 11.4236 46.5405 11.6713 46.5405 11.9049L46.5419 26.05C46.5419 28.8011 48.4894 29.6229 51.2377 28.7842Z" fill="#121212"/>
</g>
<defs>
<clipPath id="clip0_7306_2574">
<rect width="164.643" height="32.3656" fill="white" transform="translate(0.679688 0.960938)"/>
</clipPath>
</defs>
</svg>
